<mxfile host="app.diagrams.net" agent="Mozilla/5.0 (X11; Linux x86_64) AppleWebKit/537.36 (KHTML, like Gecko) Chrome/131.0.0.0 Safari/537.36" version="26.0.16">
  <diagram name="Page-1" id="tkJI0vnqvkSqmow22MBY">
    <mxGraphModel grid="1" page="1" gridSize="10" guides="1" tooltips="1" connect="1" arrows="1" fold="1" pageScale="1" pageWidth="3300" pageHeight="2339" math="1" shadow="0">
      <root>
        <mxCell id="0" />
        <mxCell id="1" parent="0" />
        <mxCell id="XwAO29_MNGcBc6wE519y-75" value="&lt;blockquote style=&quot;margin: 0 0 0 40px; border: none; padding: 0px;&quot;&gt;&lt;blockquote style=&quot;margin: 0 0 0 40px; border: none; padding: 0px;&quot;&gt;&lt;b&gt;Large&lt;/b&gt;&lt;/blockquote&gt;&lt;blockquote style=&quot;margin: 0 0 0 40px; border: none; padding: 0px;&quot;&gt;&lt;b&gt;Language&lt;/b&gt;&lt;/blockquote&gt;&lt;blockquote style=&quot;margin: 0 0 0 40px; border: none; padding: 0px;&quot;&gt;&lt;b&gt;Model&lt;/b&gt;&lt;/blockquote&gt;&lt;/blockquote&gt;" style="rounded=1;whiteSpace=wrap;html=1;align=left;fillColor=#dae8fc;strokeColor=#6c8ebf;" vertex="1" parent="1">
          <mxGeometry x="1180" y="377" width="147" height="44" as="geometry" />
        </mxCell>
        <mxCell id="XwAO29_MNGcBc6wE519y-76" value="&lt;font style=&quot;font-size: 12px;&quot;&gt;Standard Prompting&lt;/font&gt;" style="text;html=1;align=left;verticalAlign=middle;whiteSpace=wrap;rounded=0;fontSize=13;" vertex="1" parent="1">
          <mxGeometry x="1179" y="349" width="180" height="30" as="geometry" />
        </mxCell>
        <mxCell id="XwAO29_MNGcBc6wE519y-78" value="$$\text{Prompt} {(\text{NewsTitle}, \text{NewsBody})}$$" style="text;html=1;align=center;verticalAlign=middle;whiteSpace=wrap;rounded=1;fontSize=10;fillColor=#f5f5f5;strokeColor=none;fontColor=#333333;" vertex="1" parent="1">
          <mxGeometry x="1177" y="323" width="337.25" height="33" as="geometry" />
        </mxCell>
        <mxCell id="XwAO29_MNGcBc6wE519y-79" value="" style="image;sketch=0;aspect=fixed;html=1;points=[];align=center;fontSize=12;image=img/lib/mscae/Cognitive_Services.svg;" vertex="1" parent="1">
          <mxGeometry x="1192" y="380.5" width="60" height="36" as="geometry" />
        </mxCell>
        <mxCell id="XwAO29_MNGcBc6wE519y-80" value="&lt;font style=&quot;font-size: 9px;&quot;&gt;&lt;font style=&quot;&quot;&gt;&lt;b style=&quot;&quot;&gt;News Title:&lt;/b&gt;&amp;nbsp;&lt;/font&gt;An Apple a Day May Help Keep Heart Disease Away&lt;/font&gt;&lt;div&gt;&lt;font style=&quot;font-size: 9px;&quot;&gt;&lt;b style=&quot;background-color: transparent; color: light-dark(rgb(51, 51, 51), rgb(193, 193, 193));&quot;&gt;News Body&lt;/b&gt;&lt;span style=&quot;background-color: transparent;&quot;&gt;&lt;font color=&quot;rgba(0, 0, 0, 0)&quot;&gt;: &lt;/font&gt;Eating apples every day may be good for your cardiovascular health, new research suggests.\n\nWomen who ate dried apples every day for a year lowered their total cholesterol by 14 percent and their levels of &quot;&quot;bad&quot;&quot; LDL cholesterol by 23 percent&amp;nbsp;&lt;/span&gt;&lt;span style=&quot;background-color: transparent;&quot;&gt;&quot;&quot;I never expected apple ....&lt;/span&gt;&lt;/font&gt;&lt;/div&gt;" style="text;html=1;align=left;verticalAlign=bottom;whiteSpace=wrap;rounded=1;fillColor=#f5f5f5;fontColor=#333333;strokeColor=none;strokeWidth=0.6;spacingLeft=36;spacingRight=1;fontSize=11;spacing=1;" vertex="1" parent="1">
          <mxGeometry x="1170.5" y="230" width="347.5" height="91" as="geometry" />
        </mxCell>
        <mxCell id="XwAO29_MNGcBc6wE519y-81" value="" style="shape=image;html=1;verticalAlign=top;verticalLabelPosition=bottom;labelBackgroundColor=#ffffff;imageAspect=0;aspect=fixed;image=https://cdn1.iconfinder.com/data/icons/office-icons-17/512/ilustracoes_04-14-128.png" vertex="1" parent="1">
          <mxGeometry x="1170.5" y="239" width="38" height="38" as="geometry" />
        </mxCell>
        <mxCell id="XwAO29_MNGcBc6wE519y-82" value="&lt;font&gt;News Article &lt;font style=&quot;color: rgb(0, 0, 153);&quot;&gt;[Label: &lt;b style=&quot;&quot;&gt;Fake&lt;/b&gt;]&lt;/font&gt;&lt;/font&gt;" style="text;html=1;align=left;verticalAlign=middle;whiteSpace=wrap;rounded=0;" vertex="1" parent="1">
          <mxGeometry x="1203.5" y="225.5" width="187.5" height="30" as="geometry" />
        </mxCell>
        <mxCell id="XwAO29_MNGcBc6wE519y-83" value="&lt;font style=&quot;font-size: 12px;&quot;&gt;Supervised Fine-tuning (SFT)&lt;/font&gt;" style="text;html=1;align=left;verticalAlign=middle;whiteSpace=wrap;rounded=0;fontSize=13;" vertex="1" parent="1">
          <mxGeometry x="1175" y="423" width="221" height="30" as="geometry" />
        </mxCell>
        <mxCell id="XwAO29_MNGcBc6wE519y-85" value="&lt;blockquote style=&quot;margin: 0 0 0 40px; border: none; padding: 0px;&quot;&gt;&lt;blockquote style=&quot;margin: 0 0 0 40px; border: none; padding: 0px;&quot;&gt;&lt;b&gt;Tuned&lt;br&gt;LLM&lt;/b&gt;&lt;/blockquote&gt;&lt;/blockquote&gt;" style="rounded=1;whiteSpace=wrap;html=1;align=left;fillColor=#ffe6cc;strokeColor=#d79b00;" vertex="1" parent="1">
          <mxGeometry x="1181" y="452" width="147" height="44" as="geometry" />
        </mxCell>
        <mxCell id="XwAO29_MNGcBc6wE519y-88" value="" style="image;sketch=0;aspect=fixed;html=1;points=[];align=center;fontSize=12;image=img/lib/mscae/Cognitive_Services.svg;" vertex="1" parent="1">
          <mxGeometry x="1190" y="458" width="60" height="36" as="geometry" />
        </mxCell>
        <mxCell id="XwAO29_MNGcBc6wE519y-89" value="" style="verticalLabelPosition=bottom;verticalAlign=top;html=1;shape=mxgraph.basic.diag_round_rect;dx=6;whiteSpace=wrap;fillColor=#d5e8d4;strokeColor=#82b366;" vertex="1" parent="1">
          <mxGeometry x="1368" y="458" width="135" height="32" as="geometry" />
        </mxCell>
        <mxCell id="XwAO29_MNGcBc6wE519y-90" value="&lt;b&gt;&lt;font style=&quot;font-size: 10px;&quot;&gt;It is a Real news&lt;/font&gt;&lt;/b&gt;" style="text;html=1;align=left;verticalAlign=middle;whiteSpace=wrap;rounded=1;fontSize=11;strokeColor=none;fillColor=none;spacingLeft=4;" vertex="1" parent="1">
          <mxGeometry x="1393" y="462" width="100" height="24" as="geometry" />
        </mxCell>
        <mxCell id="XwAO29_MNGcBc6wE519y-91" style="edgeStyle=orthogonalEdgeStyle;rounded=0;orthogonalLoop=1;jettySize=auto;html=1;exitX=1;exitY=0.5;exitDx=0;exitDy=0;entryX=0;entryY=0.5;entryDx=0;entryDy=0;entryPerimeter=0;endSize=4;" edge="1" parent="1" source="XwAO29_MNGcBc6wE519y-85" target="XwAO29_MNGcBc6wE519y-89">
          <mxGeometry relative="1" as="geometry" />
        </mxCell>
        <mxCell id="XwAO29_MNGcBc6wE519y-92" value="" style="shape=image;html=1;verticalAlign=top;verticalLabelPosition=bottom;labelBackgroundColor=#ffffff;imageAspect=0;aspect=fixed;image=https://cdn4.iconfinder.com/data/icons/essentials-72/24/039_-_Cross-128.png" vertex="1" parent="1">
          <mxGeometry x="1493" y="446" width="28" height="28" as="geometry" />
        </mxCell>
        <mxCell id="XwAO29_MNGcBc6wE519y-94" value="&lt;font style=&quot;font-size: 12px;&quot;&gt;Reinforcement Learning with Human Feedback (RLHF)&lt;/font&gt;" style="text;html=1;align=left;verticalAlign=middle;whiteSpace=wrap;rounded=0;fontSize=13;" vertex="1" parent="1">
          <mxGeometry x="1177" y="496" width="341" height="30" as="geometry" />
        </mxCell>
        <mxCell id="XwAO29_MNGcBc6wE519y-95" value="&lt;blockquote style=&quot;margin: 0 0 0 40px; border: none; padding: 0px;&quot;&gt;&lt;b&gt;&amp;nbsp; &amp;nbsp; &amp;nbsp; &amp;nbsp; &amp;nbsp;SFT + RLHF&lt;/b&gt;&lt;/blockquote&gt;" style="rounded=1;whiteSpace=wrap;html=1;align=left;fillColor=#e1d5e7;strokeColor=#9673a6;" vertex="1" parent="1">
          <mxGeometry x="1182" y="524" width="147" height="44" as="geometry" />
        </mxCell>
        <mxCell id="XwAO29_MNGcBc6wE519y-98" value="" style="image;sketch=0;aspect=fixed;html=1;points=[];align=center;fontSize=12;image=img/lib/mscae/Cognitive_Services.svg;" vertex="1" parent="1">
          <mxGeometry x="1188" y="526" width="60" height="36" as="geometry" />
        </mxCell>
        <mxCell id="XwAO29_MNGcBc6wE519y-99" value="" style="verticalLabelPosition=bottom;verticalAlign=top;html=1;shape=mxgraph.basic.diag_round_rect;dx=6;whiteSpace=wrap;fillColor=#f8cecc;strokeColor=#b85450;" vertex="1" parent="1">
          <mxGeometry x="1369" y="530" width="135" height="32" as="geometry" />
        </mxCell>
        <mxCell id="XwAO29_MNGcBc6wE519y-100" value="&lt;b&gt;It is a Fake news&lt;/b&gt;" style="text;html=1;align=left;verticalAlign=middle;whiteSpace=wrap;rounded=1;fontSize=11;strokeColor=none;fillColor=none;spacingLeft=4;" vertex="1" parent="1">
          <mxGeometry x="1394" y="534" width="100" height="24" as="geometry" />
        </mxCell>
        <mxCell id="XwAO29_MNGcBc6wE519y-101" style="edgeStyle=orthogonalEdgeStyle;rounded=0;orthogonalLoop=1;jettySize=auto;html=1;exitX=1;exitY=0.5;exitDx=0;exitDy=0;entryX=0;entryY=0.5;entryDx=0;entryDy=0;entryPerimeter=0;endSize=4;" edge="1" parent="1" source="XwAO29_MNGcBc6wE519y-95" target="XwAO29_MNGcBc6wE519y-99">
          <mxGeometry relative="1" as="geometry" />
        </mxCell>
        <mxCell id="XwAO29_MNGcBc6wE519y-103" value="" style="verticalLabelPosition=bottom;verticalAlign=top;html=1;shape=mxgraph.basic.diag_round_rect;dx=6;whiteSpace=wrap;fillColor=#d5e8d4;strokeColor=#82b366;" vertex="1" parent="1">
          <mxGeometry x="1370" y="383" width="135" height="32" as="geometry" />
        </mxCell>
        <mxCell id="XwAO29_MNGcBc6wE519y-104" value="&lt;b&gt;&lt;font style=&quot;font-size: 10px;&quot;&gt;It is a Real news&lt;/font&gt;&lt;/b&gt;" style="text;html=1;align=left;verticalAlign=middle;whiteSpace=wrap;rounded=1;fontSize=11;strokeColor=none;fillColor=none;spacingLeft=4;" vertex="1" parent="1">
          <mxGeometry x="1395" y="387" width="100" height="24" as="geometry" />
        </mxCell>
        <mxCell id="XwAO29_MNGcBc6wE519y-105" value="" style="shape=image;html=1;verticalAlign=top;verticalLabelPosition=bottom;labelBackgroundColor=#ffffff;imageAspect=0;aspect=fixed;image=https://cdn4.iconfinder.com/data/icons/essentials-72/24/039_-_Cross-128.png" vertex="1" parent="1">
          <mxGeometry x="1495" y="371" width="28" height="28" as="geometry" />
        </mxCell>
        <mxCell id="XwAO29_MNGcBc6wE519y-109" style="edgeStyle=orthogonalEdgeStyle;rounded=0;orthogonalLoop=1;jettySize=auto;html=1;exitX=1;exitY=0.5;exitDx=0;exitDy=0;entryX=0;entryY=0.5;entryDx=0;entryDy=0;entryPerimeter=0;endSize=4;" edge="1" parent="1" source="XwAO29_MNGcBc6wE519y-75" target="XwAO29_MNGcBc6wE519y-103">
          <mxGeometry relative="1" as="geometry" />
        </mxCell>
        <mxCell id="XwAO29_MNGcBc6wE519y-110" value="" style="sketch=0;html=1;aspect=fixed;strokeColor=none;shadow=0;align=center;fillColor=#2D9C5E;verticalAlign=top;labelPosition=center;verticalLabelPosition=bottom;shape=mxgraph.gcp2.check" vertex="1" parent="1">
          <mxGeometry x="1488" y="520.5" width="28" height="22.4" as="geometry" />
        </mxCell>
      </root>
    </mxGraphModel>
  </diagram>
</mxfile>
